<svg id="Capa_1" enable-background="new 0 0 512 512" height="32" viewBox="0 0 512 512" width="32" xmlns="http://www.w3.org/2000/svg"><g><path d="m282.983 127.553 81.847-98.106h-364.83v98.106zm-91.65-64.61h30v30.167h-30zm-64.5 0h30v30.167h-30zm-64.5 0h30v30.167h-30z"/><path d="m403.899 29.447-106.875 128.106h-297.024v325h512v-453.106zm-169.301 311.053c0 30.603-24.897 55.5-55.5 55.5s-55.5-24.897-55.5-55.5v-93.5h30v93.5c0 14.061 11.439 25.5 25.5 25.5s25.5-11.439 25.5-25.5v-93.5h30zm147.603 56h-34.315l-24.486-44.099-24.486 44.099h-34.315l41.644-75-41.644-75h34.315l24.486 44.099 24.486-44.099h34.315l-41.644 75z"/></g></svg>